<?xml version="1.0" encoding="utf-8"?>
<!-- Generator: Adobe Illustrator 24.0.1, SVG Export Plug-In . SVG Version: 6.00 Build 0)  -->
<svg version="1.1" id="Layer_1" xmlns="http://www.w3.org/2000/svg" xmlns:xlink="http://www.w3.org/1999/xlink" x="0px" y="0px"
	 viewBox="0 0 300 100" style="enable-background:new 0 0 300 100;" xml:space="preserve">
<style type="text/css">
	.st0{clip-path:url(#SVGID_4_);fill:#18D631;}
	.st1{clip-path:url(#SVGID_4_);fill:#17D530;}
	.st2{clip-path:url(#SVGID_4_);fill:#17D330;}
	.st3{clip-path:url(#SVGID_4_);fill:#17D22F;}
	.st4{clip-path:url(#SVGID_4_);fill:#17D12F;}
	.st5{clip-path:url(#SVGID_4_);fill:#17D02F;}
	.st6{clip-path:url(#SVGID_4_);fill:#16CF2E;}
	.st7{clip-path:url(#SVGID_4_);fill:#16CD2E;}
	.st8{clip-path:url(#SVGID_4_);fill:#16CC2D;}
	.st9{clip-path:url(#SVGID_4_);fill:#16CB2D;}
	.st10{clip-path:url(#SVGID_4_);fill:#15CA2D;}
	.st11{clip-path:url(#SVGID_4_);fill:#15C92C;}
	.st12{clip-path:url(#SVGID_4_);fill:#15C82C;}
	.st13{clip-path:url(#SVGID_4_);fill:#15C62C;}
	.st14{clip-path:url(#SVGID_4_);fill:#15C52B;}
	.st15{clip-path:url(#SVGID_4_);fill:#14C42B;}
	.st16{clip-path:url(#SVGID_4_);fill:#14C32A;}
	.st17{clip-path:url(#SVGID_4_);fill:#14C22A;}
	.st18{clip-path:url(#SVGID_4_);fill:#14C12A;}
	.st19{clip-path:url(#SVGID_4_);fill:#13C029;}
	.st20{clip-path:url(#SVGID_4_);fill:#13BE29;}
	.st21{clip-path:url(#SVGID_4_);fill:#13BD29;}
	.st22{clip-path:url(#SVGID_4_);fill:#13BC28;}
	.st23{clip-path:url(#SVGID_4_);fill:#13BB28;}
	.st24{clip-path:url(#SVGID_4_);fill:#12BA27;}
	.st25{clip-path:url(#SVGID_4_);fill:#12B927;}
	.st26{clip-path:url(#SVGID_4_);fill:#12B827;}
	.st27{clip-path:url(#SVGID_4_);fill:#12B626;}
	.st28{clip-path:url(#SVGID_4_);fill:#12B526;}
	.st29{clip-path:url(#SVGID_4_);fill:#11B426;}
	.st30{clip-path:url(#SVGID_4_);fill:#11B325;}
	.st31{clip-path:url(#SVGID_4_);fill:#11B225;}
	.st32{clip-path:url(#SVGID_4_);fill:#11B124;}
	.st33{clip-path:url(#SVGID_4_);fill:#10B024;}
	.st34{clip-path:url(#SVGID_4_);fill:#10AF24;}
	.st35{clip-path:url(#SVGID_4_);fill:#10AE23;}
	.st36{clip-path:url(#SVGID_4_);fill:#10AC23;}
	.st37{clip-path:url(#SVGID_4_);fill:#10AB23;}
	.st38{clip-path:url(#SVGID_4_);fill:#0FAA22;}
	.st39{clip-path:url(#SVGID_4_);fill:#0FA922;}
	.st40{clip-path:url(#SVGID_4_);fill:#0FA822;}
	.st41{clip-path:url(#SVGID_4_);fill:#0FA721;}
	.st42{clip-path:url(#SVGID_4_);fill:#0FA621;}
	.st43{clip-path:url(#SVGID_4_);fill:#0EA520;}
	.st44{clip-path:url(#SVGID_4_);fill:#0EA420;}
	.st45{clip-path:url(#SVGID_4_);fill:#0EA320;}
	.st46{clip-path:url(#SVGID_4_);fill:#0EA21F;}
	.st47{clip-path:url(#SVGID_4_);fill:#0EA11F;}
	.st48{clip-path:url(#SVGID_4_);fill:#0DA01F;}
	.st49{clip-path:url(#SVGID_4_);fill:#0D9F1E;}
	.st50{clip-path:url(#SVGID_4_);fill:#0D9E1E;}
	.st51{clip-path:url(#SVGID_4_);fill:#0D9C1E;}
	.st52{clip-path:url(#SVGID_4_);fill:#0D9B1D;}
	.st53{clip-path:url(#SVGID_4_);fill:#0C9A1D;}
	.st54{clip-path:url(#SVGID_4_);fill:#0C991D;}
	.st55{clip-path:url(#SVGID_4_);fill:#0C981C;}
	.st56{clip-path:url(#SVGID_4_);fill:#0C971C;}
	.st57{clip-path:url(#SVGID_4_);fill:#0C961C;}
	.st58{clip-path:url(#SVGID_4_);fill:#0B951B;}
	.st59{clip-path:url(#SVGID_4_);fill:#0B941B;}
	.st60{clip-path:url(#SVGID_4_);fill:#0B931B;}
	.st61{clip-path:url(#SVGID_4_);fill:#0B921A;}
	.st62{clip-path:url(#SVGID_4_);fill:#0B911A;}
	.st63{clip-path:url(#SVGID_4_);fill:#0B901A;}
	.st64{clip-path:url(#SVGID_4_);fill:#0A8F19;}
	.st65{clip-path:url(#SVGID_4_);fill:#0A8E19;}
	.st66{clip-path:url(#SVGID_4_);fill:#0A8D19;}
	.st67{clip-path:url(#SVGID_4_);fill:#0A8C18;}
	.st68{clip-path:url(#SVGID_4_);fill:#098B18;}
	.st69{clip-path:url(#SVGID_4_);fill:#098A17;}
	.st70{clip-path:url(#SVGID_4_);fill:#098917;}
	.st71{clip-path:url(#SVGID_4_);fill:#098817;}
	.st72{clip-path:url(#SVGID_4_);fill:#098717;}
	.st73{clip-path:url(#SVGID_4_);fill:#098616;}
	.st74{clip-path:url(#SVGID_4_);fill:#088516;}
	.st75{clip-path:url(#SVGID_4_);fill:#088416;}
	.st76{clip-path:url(#SVGID_4_);fill:#088315;}
	.st77{clip-path:url(#SVGID_4_);fill:#088215;}
	.st78{clip-path:url(#SVGID_4_);fill:#088115;}
	.st79{clip-path:url(#SVGID_4_);fill:#078014;}
	.st80{clip-path:url(#SVGID_4_);fill:#077F14;}
	.st81{clip-path:url(#SVGID_4_);fill:#077E14;}
	.st82{clip-path:url(#SVGID_4_);fill:#077D13;}
	.st83{clip-path:url(#SVGID_4_);fill:#077C13;}
	.st84{clip-path:url(#SVGID_4_);fill:#067B13;}
	.st85{clip-path:url(#SVGID_4_);fill:#067A12;}
	.st86{clip-path:url(#SVGID_4_);fill:#067912;}
	.st87{clip-path:url(#SVGID_4_);fill:#067812;}
	.st88{clip-path:url(#SVGID_4_);fill:#067711;}
	.st89{clip-path:url(#SVGID_4_);fill:#067611;}
	.st90{clip-path:url(#SVGID_4_);fill:#057511;}
	.st91{clip-path:url(#SVGID_4_);fill:#057410;}
	.st92{clip-path:url(#SVGID_4_);fill:#057310;}
	.st93{fill:url(#SVGID_7_);}
	.st94{fill:url(#SVGID_8_);}
	.st95{fill:url(#SVGID_9_);}
	.st96{fill:url(#SVGID_10_);}
	.st97{fill:url(#SVGID_11_);}
	.st98{fill:url(#SVGID_12_);}
	.st99{fill:url(#SVGID_13_);}
	.st100{fill:url(#SVGID_14_);}
	.st101{fill:url(#SVGID_15_);}
	.st102{fill:url(#SVGID_16_);}
	.st103{fill:url(#SVGID_17_);}
	.st104{fill:url(#SVGID_18_);}
</style>
<g>
	<g>
		<g>
			<defs>
				<path id="SVGID_1_" d="M4.5,85.5l8.9-0.1l8.9-0.1l17.8-0.2C52.1,85,64,84.9,75.9,84.8c11.9-0.1,23.8-0.1,35.7-0.2l35.7-0.1
					l35.7,0c11.9,0.1,23.8,0.1,35.7,0.2c11.9,0.1,23.8,0.2,35.7,0.3l17.8,0.2l8.9,0.1l8.9,0.1l-8.9,0.1l-8.9,0.1L254.3,86
					c-11.9,0.1-23.8,0.2-35.7,0.3c-11.9,0.1-23.8,0.1-35.7,0.2l-35.7,0l-35.7-0.1c-11.9-0.1-23.8-0.1-35.7-0.2
					C64,86.2,52.1,86.1,40.2,86l-17.8-0.2l-8.9-0.1L4.5,85.5z"/>
			</defs>
			<clipPath id="SVGID_2_">
				<use xlink:href="#SVGID_1_"  style="overflow:visible;"/>
			</clipPath>
		</g>
	</g>
	<g>
		<g>
			<defs>
				<path id="SVGID_3_" d="M4.5,85.5l8.9-0.1l8.9-0.1l17.8-0.2C52.1,85,64,84.9,75.9,84.8c11.9-0.1,23.8-0.1,35.7-0.2l35.7-0.1
					l35.7,0c11.9,0.1,23.8,0.1,35.7,0.2c11.9,0.1,23.8,0.2,35.7,0.3l17.8,0.2l8.9,0.1l8.9,0.1l-8.9,0.1l-8.9,0.1L254.3,86
					c-11.9,0.1-23.8,0.2-35.7,0.3c-11.9,0.1-23.8,0.1-35.7,0.2l-35.7,0l-35.7-0.1c-11.9-0.1-23.8-0.1-35.7-0.2
					C64,86.2,52.1,86.1,40.2,86l-17.8-0.2l-8.9-0.1L4.5,85.5z"/>
			</defs>
			<clipPath id="SVGID_4_">
				<use xlink:href="#SVGID_3_"  style="overflow:visible;"/>
			</clipPath>
			<polygon class="st0" points="289.3,86.5 290,85.9 290,86.5 			"/>
			<polygon class="st1" points="287,86.5 289.6,84.6 290,84.6 290,85.9 289.3,86.5 			"/>
			<polygon class="st2" points="284.8,86.5 287.3,84.6 289.6,84.6 287,86.5 			"/>
			<polygon class="st3" points="282.6,86.5 285.1,84.6 287.3,84.6 284.8,86.5 			"/>
			<polygon class="st4" points="280.4,86.5 282.9,84.6 285.1,84.6 282.6,86.5 			"/>
			<polygon class="st5" points="278.2,86.5 280.7,84.6 282.9,84.6 280.4,86.5 			"/>
			<polygon class="st6" points="276,86.5 278.5,84.6 280.7,84.6 278.2,86.5 			"/>
			<polygon class="st7" points="273.8,86.5 276.3,84.6 278.5,84.6 276,86.5 			"/>
			<polygon class="st8" points="271.6,86.5 274.1,84.6 276.3,84.6 273.8,86.5 			"/>
			<polygon class="st9" points="269.3,86.5 271.9,84.6 274.1,84.6 271.6,86.5 			"/>
			<polygon class="st10" points="267.1,86.5 269.6,84.6 271.9,84.6 269.3,86.5 			"/>
			<polygon class="st11" points="264.9,86.5 267.4,84.6 269.6,84.6 267.1,86.5 			"/>
			<polygon class="st12" points="262.7,86.5 265.2,84.6 267.4,84.6 264.9,86.5 			"/>
			<polygon class="st13" points="260.5,86.5 263,84.6 265.2,84.6 262.7,86.5 			"/>
			<polygon class="st14" points="258.3,86.5 260.8,84.6 263,84.6 260.5,86.5 			"/>
			<polygon class="st15" points="256.1,86.5 258.6,84.6 260.8,84.6 258.3,86.5 			"/>
			<polygon class="st16" points="253.9,86.5 256.4,84.6 258.6,84.6 256.1,86.5 			"/>
			<polygon class="st17" points="251.6,86.5 254.2,84.6 256.4,84.6 253.9,86.5 			"/>
			<polygon class="st18" points="249.4,86.5 251.9,84.6 254.2,84.6 251.6,86.5 			"/>
			<polygon class="st19" points="247.2,86.5 249.7,84.6 251.9,84.6 249.4,86.5 			"/>
			<polygon class="st20" points="245,86.5 247.5,84.6 249.7,84.6 247.2,86.5 			"/>
			<polygon class="st21" points="242.8,86.5 245.3,84.6 247.5,84.6 245,86.5 			"/>
			<polygon class="st22" points="240.6,86.5 243.1,84.6 245.3,84.6 242.8,86.5 			"/>
			<polygon class="st23" points="238.4,86.5 240.9,84.6 243.1,84.6 240.6,86.5 			"/>
			<polygon class="st24" points="236.2,86.5 238.7,84.6 240.9,84.6 238.4,86.5 			"/>
			<polygon class="st25" points="233.9,86.5 236.5,84.6 238.7,84.6 236.2,86.5 			"/>
			<polygon class="st26" points="231.7,86.5 234.2,84.6 236.5,84.6 233.9,86.5 			"/>
			<polygon class="st27" points="229.5,86.5 232,84.6 234.2,84.6 231.7,86.5 			"/>
			<polygon class="st28" points="227.3,86.5 229.8,84.6 232,84.6 229.5,86.5 			"/>
			<polygon class="st29" points="225.1,86.5 227.6,84.6 229.8,84.6 227.3,86.5 			"/>
			<polygon class="st30" points="222.9,86.5 225.4,84.6 227.6,84.6 225.1,86.5 			"/>
			<polygon class="st31" points="220.7,86.5 223.2,84.6 225.4,84.6 222.9,86.5 			"/>
			<polygon class="st32" points="218.5,86.5 221,84.6 223.2,84.6 220.7,86.5 			"/>
			<polygon class="st33" points="216.3,86.5 218.8,84.6 221,84.6 218.5,86.5 			"/>
			<polygon class="st34" points="214,86.5 216.6,84.6 218.8,84.6 216.3,86.5 			"/>
			<polygon class="st35" points="211.8,86.5 214.3,84.6 216.6,84.6 214,86.5 			"/>
			<polygon class="st36" points="209.6,86.5 212.1,84.6 214.3,84.6 211.8,86.5 			"/>
			<polygon class="st37" points="207.4,86.5 209.9,84.6 212.1,84.6 209.6,86.5 			"/>
			<polygon class="st38" points="205.2,86.5 207.7,84.6 209.9,84.6 207.4,86.5 			"/>
			<polygon class="st39" points="203,86.5 205.5,84.6 207.7,84.6 205.2,86.5 			"/>
			<polygon class="st40" points="200.8,86.5 203.3,84.6 205.5,84.6 203,86.5 			"/>
			<polygon class="st41" points="198.6,86.5 201.1,84.6 203.3,84.6 200.8,86.5 			"/>
			<polygon class="st42" points="196.3,86.5 198.9,84.6 201.1,84.6 198.6,86.5 			"/>
			<polygon class="st43" points="194.1,86.5 196.6,84.6 198.9,84.6 196.3,86.5 			"/>
			<polygon class="st44" points="191.9,86.5 194.4,84.6 196.6,84.6 194.1,86.5 			"/>
			<polygon class="st45" points="189.7,86.5 192.2,84.6 194.4,84.6 191.9,86.5 			"/>
			<polygon class="st46" points="187.5,86.5 190,84.6 192.2,84.6 189.7,86.5 			"/>
			<polygon class="st47" points="185.3,86.5 187.8,84.6 190,84.6 187.5,86.5 			"/>
			<polygon class="st48" points="183.1,86.5 185.6,84.6 187.8,84.6 185.3,86.5 			"/>
			<polygon class="st49" points="180.9,86.5 183.4,84.6 185.6,84.6 183.1,86.5 			"/>
			<polygon class="st50" points="178.6,86.5 181.2,84.6 183.4,84.6 180.9,86.5 			"/>
			<polygon class="st51" points="176.4,86.5 178.9,84.6 181.2,84.6 178.6,86.5 			"/>
			<polygon class="st52" points="174.2,86.5 176.7,84.6 178.9,84.6 176.4,86.5 			"/>
			<polygon class="st53" points="172,86.5 174.5,84.6 176.7,84.6 174.2,86.5 			"/>
			<polygon class="st54" points="169.8,86.5 172.3,84.6 174.5,84.6 172,86.5 			"/>
			<polygon class="st55" points="167.6,86.5 170.1,84.6 172.3,84.6 169.8,86.5 			"/>
			<polygon class="st56" points="165.4,86.5 167.9,84.6 170.1,84.6 167.6,86.5 			"/>
			<polygon class="st57" points="163.2,86.5 165.7,84.6 167.9,84.6 165.4,86.5 			"/>
			<polygon class="st58" points="160.9,86.5 163.5,84.6 165.7,84.6 163.2,86.5 			"/>
			<polygon class="st59" points="158.7,86.5 161.2,84.6 163.5,84.6 160.9,86.5 			"/>
			<polygon class="st60" points="156.5,86.5 159,84.6 161.2,84.6 158.7,86.5 			"/>
			<polygon class="st61" points="154.3,86.5 156.8,84.6 159,84.6 156.5,86.5 			"/>
			<polygon class="st62" points="152.1,86.5 154.6,84.6 156.8,84.6 154.3,86.5 			"/>
			<polygon class="st63" points="149.9,86.5 152.4,84.6 154.6,84.6 152.1,86.5 			"/>
			<polygon class="st64" points="147.7,86.5 150.2,84.6 152.4,84.6 149.9,86.5 			"/>
			<polygon class="st65" points="145.5,86.5 148,84.6 150.2,84.6 147.7,86.5 			"/>
			<polygon class="st66" points="143.2,86.5 145.8,84.6 148,84.6 145.5,86.5 			"/>
			<polygon class="st67" points="141,86.5 143.5,84.6 145.8,84.6 143.2,86.5 			"/>
			<polygon class="st67" points="138.8,86.5 141.3,84.6 143.5,84.6 141,86.5 			"/>
			<polygon class="st68" points="136.6,86.5 139.1,84.6 141.3,84.6 138.8,86.5 			"/>
			<polygon class="st69" points="134.4,86.5 136.9,84.6 139.1,84.6 136.6,86.5 			"/>
			<polygon class="st70" points="132.2,86.5 134.7,84.6 136.9,84.6 134.4,86.5 			"/>
			<polygon class="st71" points="130,86.5 132.5,84.6 134.7,84.6 132.2,86.5 			"/>
			<polygon class="st72" points="127.8,86.5 130.3,84.6 132.5,84.6 130,86.5 			"/>
			<polygon class="st73" points="125.5,86.5 128.1,84.6 130.3,84.6 127.8,86.5 			"/>
			<polygon class="st74" points="123.3,86.5 125.8,84.6 128.1,84.6 125.5,86.5 			"/>
			<polygon class="st75" points="121.1,86.5 123.6,84.6 125.8,84.6 123.3,86.5 			"/>
			<polygon class="st76" points="118.9,86.5 121.4,84.6 123.6,84.6 121.1,86.5 			"/>
			<polygon class="st77" points="116.7,86.5 119.2,84.6 121.4,84.6 118.9,86.5 			"/>
			<polygon class="st77" points="114.5,86.5 117,84.6 119.2,84.6 116.7,86.5 			"/>
			<polygon class="st78" points="112.3,86.5 114.8,84.6 117,84.6 114.5,86.5 			"/>
			<polygon class="st79" points="110.1,86.5 112.6,84.6 114.8,84.6 112.3,86.5 			"/>
			<polygon class="st80" points="107.9,86.5 110.4,84.6 112.6,84.6 110.1,86.5 			"/>
			<polygon class="st81" points="105.6,86.5 108.2,84.6 110.4,84.6 107.9,86.5 			"/>
			<polygon class="st82" points="103.4,86.5 105.9,84.6 108.2,84.6 105.6,86.5 			"/>
			<polygon class="st83" points="101.2,86.5 103.7,84.6 105.9,84.6 103.4,86.5 			"/>
			<polygon class="st83" points="99,86.5 101.5,84.6 103.7,84.6 101.2,86.5 			"/>
			<polygon class="st84" points="96.8,86.5 99.3,84.6 101.5,84.6 99,86.5 			"/>
			<polygon class="st85" points="94.6,86.5 97.1,84.6 99.3,84.6 96.8,86.5 			"/>
			<polygon class="st86" points="92.4,86.5 94.9,84.6 97.1,84.6 94.6,86.5 			"/>
			<polygon class="st86" points="90.2,86.5 92.7,84.6 94.9,84.6 92.4,86.5 			"/>
			<polygon class="st87" points="87.9,86.5 90.5,84.6 92.7,84.6 90.2,86.5 			"/>
			<polygon class="st88" points="85.7,86.5 88.2,84.6 90.5,84.6 87.9,86.5 			"/>
			<polygon class="st89" points="83.5,86.5 86,84.6 88.2,84.6 85.7,86.5 			"/>
			<polygon class="st89" points="81.3,86.5 83.8,84.6 86,84.6 83.5,86.5 			"/>
			<polygon class="st90" points="79.1,86.5 81.6,84.6 83.8,84.6 81.3,86.5 			"/>
			<polygon class="st91" points="76.9,86.5 79.4,84.6 81.6,84.6 79.1,86.5 			"/>
			<polygon class="st91" points="74.7,86.5 77.2,84.6 79.4,84.6 76.9,86.5 			"/>
			<polygon class="st92" points="72.5,86.5 75,84.6 77.2,84.6 74.7,86.5 			"/>
			<polygon class="st92" points="70.2,86.5 72.8,84.6 75,84.6 72.5,86.5 			"/>
			<polygon class="st92" points="72.8,84.6 70.2,86.5 4.5,86.5 4.5,84.6 			"/>
		</g>
	</g>
	<g>
		<g>
			<defs>
				<path id="SVGID_5_" d="M4.5,85.5l8.9-0.1l8.9-0.1l17.8-0.2C52.1,85,64,84.9,75.9,84.8c11.9-0.1,23.8-0.1,35.7-0.2l35.7-0.1
					l35.7,0c11.9,0.1,23.8,0.1,35.7,0.2c11.9,0.1,23.8,0.2,35.7,0.3l17.8,0.2l8.9,0.1l8.9,0.1l-8.9,0.1l-8.9,0.1L254.3,86
					c-11.9,0.1-23.8,0.2-35.7,0.3c-11.9,0.1-23.8,0.1-35.7,0.2l-35.7,0l-35.7-0.1c-11.9-0.1-23.8-0.1-35.7-0.2
					C64,86.2,52.1,86.1,40.2,86l-17.8-0.2l-8.9-0.1L4.5,85.5z"/>
			</defs>
			<clipPath id="SVGID_6_">
				<use xlink:href="#SVGID_5_"  style="overflow:visible;"/>
			</clipPath>
		</g>
	</g>
</g>
<g>
	<linearGradient id="SVGID_7_" gradientUnits="userSpaceOnUse" x1="304.1762" y1="83.992" x2="-10.8238" y2="32.5634">
		<stop  offset="0" style="stop-color:#19DD33"/>
		<stop  offset="0.4261" style="stop-color:#0FA922"/>
		<stop  offset="0.8038" style="stop-color:#088215"/>
		<stop  offset="1" style="stop-color:#057310"/>
	</linearGradient>
	<path class="st93" d="M29.3,27.6h-17c-0.7,0-1.3-0.1-1.9-0.3c-0.6-0.2-1.1-0.4-1.5-0.7c-0.4-0.3-0.7-0.6-1-0.8
		c-0.2-0.3-0.3-0.5-0.3-0.7c0-0.3,0.4-0.5,1.1-0.5h39.1c0.7,0,1.3,0.1,1.9,0.3c0.6,0.2,1.1,0.5,1.5,0.7s0.7,0.6,1,0.9
		c0.2,0.3,0.3,0.5,0.3,0.7c0,0.3-0.4,0.5-1.1,0.5H38c3.7,1.3,6.5,2.8,8.3,4.5c1.8,1.7,2.7,3.5,2.7,5.3c0,1.3-0.3,2.4-0.9,3.5
		c0.8,0.5,1.2,0.9,1.2,1.3c0,0.1-0.2,0.3-0.5,0.6c-0.4,0.3-0.6,0.6-0.8,0.9c-0.5,0.6-1,1-1.6,1.3c-0.6,0.2-1.2,0.4-1.9,0.4
		c-0.2,0-0.6-0.1-1.2-0.2c-0.6-0.2-1.2-0.4-1.8-0.6c-0.6-0.2-1.1-0.5-1.6-0.8c-0.5-0.3-0.7-0.6-0.7-0.8l0.1-0.3
		c2.6-2.7,3.9-5,3.9-6.9c0-1.2-0.4-2.2-1.1-3.1c-0.7-0.8-1.6-1.5-2.6-1.9l-0.2-0.1c-0.8-0.5-1.7-0.8-2.5-0.9v27.4
		c0,0.3-0.4,0.4-1.1,0.4h-0.3c-2.5,0-4.9-0.3-7.4-0.9c-2.5-0.6-4.7-1.5-6.7-2.6c-2-1.1-3.6-2.4-4.9-4c-1.3-1.6-2-3.3-2.2-5.2
		c0-1.2,0.2-2.3,0.6-3.4c0.4-1.1,1.1-2.1,2-3.2s2.1-2.2,3.5-3.4c1.4-1.2,3.2-2.6,5.2-4.1c0.7-0.5,1.3-1,2-1.4
		C28.1,28.6,28.7,28.1,29.3,27.6z M30.8,54.4v-21c-1.9,1.5-3.5,2.8-4.8,3.8c-1.3,1-2.2,1.8-2.7,2.4c-2.2,2.3-3.3,4.5-3.3,6.7
		c0,1.3,0.3,2.4,0.8,3.4c0.6,1,1.3,1.9,2.3,2.6c0.9,0.7,2.1,1.3,3.3,1.6c1.3,0.4,2.6,0.6,4,0.6H30.8z"/>
	<linearGradient id="SVGID_8_" gradientUnits="userSpaceOnUse" x1="304.0098" y1="85.0113" x2="-10.9902" y2="33.5827">
		<stop  offset="0" style="stop-color:#19DD33"/>
		<stop  offset="0.4261" style="stop-color:#0FA922"/>
		<stop  offset="0.8038" style="stop-color:#088215"/>
		<stop  offset="1" style="stop-color:#057310"/>
	</linearGradient>
	<path class="st94" d="M67.5,26.2c0.3,0.4,0.5,0.7,0.5,0.9c0,0.3-0.3,0.5-1,0.5H62c-0.5,0.9-0.9,1.9-1.4,2.7c-0.5,0.9-1,1.7-1.4,2.6
		c-0.4,0.9-0.8,1.7-1.1,2.6c-0.3,0.9-0.4,1.8-0.4,2.8c0,1.2,0.2,2.3,0.7,3.4c0.4,1.1,1,2.2,1.6,3.3c0.6,1.1,1.4,2.1,2.1,3.2
		c0.8,1,1.5,2.1,2.1,3.1c0.6,1,1.2,2,1.6,3.1c0.4,1,0.7,2.1,0.7,3.1c0,1.1-0.2,2.1-0.6,3.1c-0.4,1-0.9,1.9-1.6,2.7
		c-0.7,0.8-1.5,1.4-2.5,1.9c-0.9,0.5-2,0.7-3.1,0.7c-0.5,0-1.1,0-1.7-0.1c-0.7,0-1.3-0.1-2-0.3s-1.3-0.4-2-0.7
		c-0.6-0.3-1.2-0.7-1.6-1.3c-0.1-0.1-0.2-0.3-0.2-0.5c0-0.2,0.1-0.4,0.3-0.4c0.2-0.1,0.5-0.1,0.7-0.1c0.4,0,0.7,0,1,0.1
		c0.3,0.1,0.6,0.1,0.8,0.1c0.9,0,1.7-0.2,2.4-0.7c0.8-0.4,1.4-1,2-1.7c0.6-0.7,1-1.5,1.3-2.4c0.3-0.9,0.5-1.8,0.5-2.6
		c0-1.2-0.2-2.3-0.7-3.3c-0.4-1.1-1-2.1-1.6-3.1c-0.6-1-1.4-2-2.1-2.9c-0.8-1-1.5-2-2.1-3c-0.6-1-1.2-2.1-1.6-3.2
		c-0.4-1.1-0.7-2.3-0.7-3.6c0-1.5,0.3-2.9,0.9-4.4c0.6-1.5,1.3-2.9,2.1-4.2h-3.9c-0.5,0-0.9-0.1-1.4-0.2c-0.5-0.2-1-0.4-1.4-0.6
		c-0.4-0.2-0.8-0.5-1.1-0.8c-0.3-0.3-0.5-0.6-0.5-0.9c0-0.3,0.4-0.5,1.1-0.5h15.7c0.7,0,1.5,0.2,2.3,0.5
		C66.3,25.4,67,25.7,67.5,26.2z"/>
	<linearGradient id="SVGID_9_" gradientUnits="userSpaceOnUse" x1="304.4316" y1="82.4279" x2="-10.5684" y2="30.9993">
		<stop  offset="0" style="stop-color:#19DD33"/>
		<stop  offset="0.4261" style="stop-color:#0FA922"/>
		<stop  offset="0.8038" style="stop-color:#088215"/>
		<stop  offset="1" style="stop-color:#057310"/>
	</linearGradient>
	<path class="st95" d="M78.3,26.2c0.3,0.4,0.5,0.7,0.5,0.9c0,0.3-0.3,0.5-1,0.5h-3.3v37.1c0,0.2-0.2,0.3-0.7,0.3
		c-0.4,0-0.9-0.1-1.4-0.2c-0.6-0.1-1.1-0.3-1.7-0.6c-0.5-0.2-1-0.5-1.4-0.8c-0.4-0.3-0.6-0.7-0.6-1.1V27.6h-1.4
		c-1.7,0-3.1-0.3-4.1-0.8c-1.1-0.6-1.6-1.1-1.6-1.7c0-0.4,0.4-0.5,1.1-0.5h11.5c0.7,0,1.4,0.2,2.2,0.5
		C77.1,25.4,77.8,25.7,78.3,26.2z"/>
	<linearGradient id="SVGID_10_" gradientUnits="userSpaceOnUse" x1="306.7191" y1="68.4167" x2="-8.2809" y2="16.9881">
		<stop  offset="0" style="stop-color:#19DD33"/>
		<stop  offset="0.4261" style="stop-color:#0FA922"/>
		<stop  offset="0.8038" style="stop-color:#088215"/>
		<stop  offset="1" style="stop-color:#057310"/>
	</linearGradient>
	<path class="st96" d="M86.1,56.1h-0.6c-2.6,0-4.7-0.9-6.2-2.7c-0.2-0.2-0.4-0.6-0.4-0.9V27.6h-2.2c-0.5,0-1-0.1-1.5-0.2
		c-0.5-0.2-1-0.4-1.5-0.6c-0.5-0.2-0.9-0.5-1.2-0.8c-0.3-0.3-0.4-0.6-0.4-0.9s0.4-0.5,1.1-0.5h24l0.2-1.3c0-1.8-1.4-3.9-4.2-6.2
		l-0.9-0.8c-1.3-1.2-2.6-2.4-3.9-3.5c-1.3-1.1-2.7-2.2-4.1-3.2c-0.4-0.3-0.6-0.6-0.6-0.8c0-0.4,0.4-0.6,1.2-0.6
		c2.6,0.3,7.2,3.5,13.7,9.7c2.8,2.6,4.3,4.8,4.7,6.6h0.5c0.5,0,1.1,0.1,1.6,0.3c0.5,0.2,1,0.4,1.5,0.7c0.5,0.3,0.8,0.5,1.1,0.8
		c0.3,0.3,0.4,0.6,0.4,0.8c0,0.3-0.4,0.5-1.1,0.5H84.8v24.7c7.5-2.4,12.1-6.1,13.8-11.1c0.2-0.6,0.3-1.3,0.3-1.9
		c0-1.4-0.5-2.6-1.6-3.5l-1.6-1.1c-0.2,0.6-0.3,1.4-0.3,2.3s-0.1,1.6-0.3,2.2c-0.9,3.9-2,5.9-3.1,5.9c-0.5,0-1-0.1-1.6-0.3
		c-0.6-0.2-1.1-0.4-1.6-0.7c-0.5-0.3-0.9-0.5-1.2-0.8C87.2,43,87,42.8,87,42.6c0.5-0.9,0.8-1.9,1.1-2.8c0.3-0.9,0.4-1.7,0.3-2.6
		l-0.1-1.6c0-0.4,0.4-0.6,1.1-0.6l0.1-0.1v-0.2c0-0.2,0.1-0.5,0.1-1v-0.3c0-1.7,0.7-2.5,2-2.5c1.5,0,4,1,7.5,3.1
		c3.8,1.9,5.7,4.4,5.7,7.3c0,1.3-0.4,2.6-1.1,3.9c-0.7,1.3-1.7,2.6-2.9,3.8c-1.2,1.2-2.7,2.3-4.3,3.3c-1.6,1-3.4,1.8-5.3,2.4
		C89.5,55.4,87.7,55.9,86.1,56.1z"/>
	<linearGradient id="SVGID_11_" gradientUnits="userSpaceOnUse" x1="305.4754" y1="76.0346" x2="-9.5246" y2="24.606">
		<stop  offset="0" style="stop-color:#19DD33"/>
		<stop  offset="0.4261" style="stop-color:#0FA922"/>
		<stop  offset="0.8038" style="stop-color:#088215"/>
		<stop  offset="1" style="stop-color:#057310"/>
	</linearGradient>
	<path class="st97" d="M118.5,26.2c0.3,0.4,0.5,0.7,0.5,0.9c0,0.3-0.3,0.5-1,0.5h-3.3v37.1c0,0.2-0.2,0.3-0.7,0.3
		c-0.4,0-0.9-0.1-1.4-0.2c-0.6-0.1-1.1-0.3-1.7-0.6c-0.5-0.2-1-0.5-1.4-0.8c-0.4-0.3-0.6-0.7-0.6-1.1V27.6h-1.4
		c-1.7,0-3.1-0.3-4.1-0.8c-1.1-0.6-1.6-1.1-1.6-1.7c0-0.4,0.4-0.5,1.1-0.5h11.5c0.7,0,1.4,0.2,2.2,0.5
		C117.3,25.4,118,25.7,118.5,26.2z"/>
	<linearGradient id="SVGID_12_" gradientUnits="userSpaceOnUse" x1="307.0776" y1="66.221" x2="-7.9224" y2="14.7924">
		<stop  offset="0" style="stop-color:#19DD33"/>
		<stop  offset="0.4261" style="stop-color:#0FA922"/>
		<stop  offset="0.8038" style="stop-color:#088215"/>
		<stop  offset="1" style="stop-color:#057310"/>
	</linearGradient>
	<path class="st98" d="M145.3,57.4c-0.6,0-1.1-0.1-1.7-0.2c-0.6-0.2-1.1-0.4-1.7-0.6c-0.5-0.3-0.9-0.5-1.3-0.8
		c-0.3-0.3-0.5-0.6-0.5-0.9V42c-0.1-2.1-0.3-3.9-0.6-5.5c-0.3-1.6-0.7-2.9-1.3-4c-0.5-1.1-1.2-2.1-2-2.8c-0.8-0.7-1.7-1.4-2.8-1.8
		c-0.4,0-0.8,0.2-1.3,0.6c-0.5,0.4-1.1,0.9-1.7,1.4c-0.6,0.5-1.2,1.1-1.7,1.7c-0.5,0.6-1,1-1.3,1.4c1.2,0.2,2.4,0.4,3.5,0.8
		c1.1,0.4,2,0.8,2.8,1.3c0.8,0.5,1.4,1.2,1.9,1.8c0.5,0.7,0.7,1.4,0.7,2.2c0,0.9-0.2,1.9-0.7,2.9c-0.5,1-1.1,1.9-1.9,2.7
		c-0.8,0.8-1.6,1.5-2.6,2s-1.9,0.8-2.8,0.8c-0.5,0-1-0.1-1.6-0.2c-0.6-0.2-1.2-0.4-1.7-0.6c-0.5-0.2-1-0.5-1.3-0.8
		c-0.4-0.3-0.6-0.6-0.6-0.9c0.7-0.2,1.4-0.5,2-0.8c0.6-0.3,1.1-0.6,1.7-0.9c0.6-0.3,1.1-0.7,1.4-1.2c1.4-1.5,2.1-3.1,2.1-4.8
		c0-0.5-0.1-0.9-0.2-1.3c-1.1,0-2.2,0-3.2,0.1c-1,0.1-2,0.1-3.1,0.1c-0.4,0-0.8-0.1-1.4-0.2c-0.6-0.1-1.1-0.3-1.7-0.6
		c-0.5-0.2-1-0.5-1.4-0.8c-0.4-0.3-0.6-0.6-0.6-0.8c0-0.1,0-0.1,0.1-0.2l2.6-3.1c3.3-3.9,6-5.8,8.3-5.8c1.7,0,3.9,0.7,6.7,2.1
		c0.9,0.6,1.7,1,2.3,1.4c0.6,0.4,1.1,0.7,1.4,1v-7.4c0-0.2,0.3-0.3,0.8-0.3c0.6,0,1.1,0.1,1.7,0.2c0.6,0.2,1.1,0.4,1.6,0.6
		c0.5,0.3,0.9,0.5,1.2,0.8c0.3,0.3,0.5,0.6,0.5,0.9v0.5c0.5,0,1,0.1,1.6,0.3c0.6,0.2,1.1,0.4,1.6,0.7c0.5,0.3,0.9,0.6,1.2,0.9
		c0.3,0.3,0.5,0.6,0.5,0.9c-0.1,0.2-0.4,0.4-0.7,0.4h-0.3c0,0-1.3-0.1-3.9-0.1v29.5C146,57.3,145.8,57.4,145.3,57.4z"/>
	<linearGradient id="SVGID_13_" gradientUnits="userSpaceOnUse" x1="308.1706" y1="59.5265" x2="-6.8294" y2="8.0979">
		<stop  offset="0" style="stop-color:#19DD33"/>
		<stop  offset="0.4261" style="stop-color:#0FA922"/>
		<stop  offset="0.8038" style="stop-color:#088215"/>
		<stop  offset="1" style="stop-color:#057310"/>
	</linearGradient>
	<path class="st99" d="M184,14.1c0.4,0.3,0.6,0.6,0.6,0.8c0,0.4-0.4,0.6-1.1,0.6c-0.8-0.1-1.5-0.2-2.2-0.5c-0.7-0.3-1.4-0.7-2-1.2
		c-1.9-1.6-3.9-2.9-6.1-3.9c-2.1-1-4.4-1.5-6.8-1.5c-1.7,0-3.3,0.3-4.8,0.8s-3,1.3-4.2,2.3c-1.2,1-2.2,2.2-3,3.6
		c-0.8,1.4-1.1,2.9-1.1,4.6c0,1.8,0.4,3.3,1.3,4.7h1.3c0.4,0,0.8,0.1,1.4,0.2c0.5,0.1,1.1,0.3,1.6,0.6c0.5,0.2,0.9,0.5,1.3,0.8
		c0.3,0.3,0.5,0.6,0.5,0.9c0,0.4-0.4,0.5-1.1,0.5h-3.2v37.3c0,0.2-0.3,0.3-0.8,0.3c-0.4,0-0.9-0.1-1.4-0.2c-0.6-0.1-1.1-0.3-1.7-0.6
		c-0.5-0.2-1-0.5-1.4-0.8c-0.4-0.3-0.6-0.7-0.6-1.1V27.6h-0.9c-0.4,0-0.9-0.1-1.4-0.2c-0.5-0.2-1.1-0.4-1.5-0.6
		c-0.5-0.2-0.9-0.5-1.2-0.8c-0.3-0.3-0.5-0.6-0.5-0.9c0-0.4,0.4-0.5,1.1-0.5h4c-1.8-2.1-2.7-4.4-2.7-6.8c0-2.1,0.5-4,1.5-5.6
		c1-1.6,2.2-2.8,3.7-3.8c1.5-1,3.2-1.7,5-2.2s3.6-0.7,5.3-0.7c1.8,0,3.7,0.2,5.6,0.7s3.8,1.1,5.6,1.9c1.8,0.8,3.6,1.7,5.3,2.8
		C181,11.9,182.5,13,184,14.1z"/>
	<linearGradient id="SVGID_14_" gradientUnits="userSpaceOnUse" x1="307.3429" y1="64.5963" x2="-7.6571" y2="13.1677">
		<stop  offset="0" style="stop-color:#19DD33"/>
		<stop  offset="0.4261" style="stop-color:#0FA922"/>
		<stop  offset="0.8038" style="stop-color:#088215"/>
		<stop  offset="1" style="stop-color:#057310"/>
	</linearGradient>
	<path class="st100" d="M186.3,26.2c0.3,0.4,0.5,0.7,0.5,0.9c0,0.3-0.3,0.5-1,0.5h-2.7v29.5c0,0.2-0.1,0.4-0.3,0.5s-0.6,0.1-1.2,0.1
		c-1.3,0-2.8-0.1-4.4-0.3c-1.6-0.2-3.2-0.6-4.7-1c-1.6-0.5-3.1-1-4.6-1.7c-1.5-0.7-2.8-1.5-3.9-2.5c-1.1-1-2-2.1-2.7-3.3
		c-0.7-1.2-1-2.6-1-4.1c0.1-1,0.3-2,0.8-2.9c0.4-0.9,1-1.8,1.7-2.6c0.7-0.8,1.4-1.5,2.2-2.2c0.8-0.7,1.6-1.3,2.4-1.9
		c1.5-1.2,3.1-2.3,4.8-3.4c1.7-1.1,3.3-2.3,5-3.7v-0.3h-18.7c-0.4,0-0.9-0.1-1.4-0.2s-1.1-0.4-1.5-0.6c-0.5-0.2-0.9-0.5-1.2-0.8
		c-0.3-0.3-0.5-0.6-0.5-0.9c0-0.4,0.4-0.5,1.1-0.5h27.3c0.6,0,1.3,0.2,2.1,0.5C185.1,25.4,185.8,25.8,186.3,26.2z M172,58.5
		c0.1,0.1,0.2,0.2,0.2,0.4c0,0.3-0.2,0.5-0.5,0.7c-0.3,0.2-0.6,0.4-0.8,0.6l-0.6,0.3c-0.3,0.1-0.7,0.3-1.3,0.5
		c-0.6,0.2-1.1,0.3-1.6,0.3c-0.4,0-0.7-0.1-0.9-0.2c-1.6-1.1-3.4-1.7-5.4-1.9c-0.4,0-0.6-0.2-0.6-0.4c0-0.4,0.2-0.7,0.6-1
		c0.4-0.3,0.9-0.6,1.4-0.8s1.1-0.4,1.8-0.5c0.6-0.1,1.1-0.2,1.6-0.2C168,56.6,170,57.3,172,58.5z M167,44c-0.5,1-0.7,2-0.7,3
		c0,1.2,0.3,2.3,0.9,3.3c0.6,0.9,1.4,1.7,2.3,2.4c1,0.6,2.1,1.1,3.3,1.5c1.2,0.3,2.5,0.5,3.8,0.5h0.6l0-19.8
		c-0.8,0.5-1.7,1.1-2.6,1.7c-0.9,0.6-1.9,1.4-2.8,2.1c-0.9,0.8-1.8,1.6-2.6,2.5C168.2,42.1,167.5,43,167,44z"/>
	<linearGradient id="SVGID_15_" gradientUnits="userSpaceOnUse" x1="308.9075" y1="55.0127" x2="-6.0925" y2="3.5842">
		<stop  offset="0" style="stop-color:#19DD33"/>
		<stop  offset="0.4261" style="stop-color:#0FA922"/>
		<stop  offset="0.8038" style="stop-color:#088215"/>
		<stop  offset="1" style="stop-color:#057310"/>
	</linearGradient>
	<path class="st101" d="M224.3,57.8c-0.5,0-1-0.1-1.6-0.2c-0.6-0.2-1.2-0.4-1.7-0.6c-0.5-0.2-1-0.5-1.3-0.9c-0.4-0.3-0.6-0.7-0.6-1
		v-6.6c-0.4-4.3-1.8-7.7-4.2-10.1v5.5c0,1.4-0.2,2.7-0.5,3.9c-0.3,1.2-0.8,2.2-1.5,3.1c-0.7,0.9-1.5,1.6-2.6,2
		c-1.1,0.5-2.3,0.7-3.7,0.7c-1.1,0-2.2-0.1-3.4-0.3c-1.2-0.2-2.2-0.5-3.2-0.9s-1.7-0.7-2.3-1.2c-0.6-0.4-0.9-0.9-0.9-1.3
		c0.2-0.3,0.5-0.4,0.9-0.4c0.6,0,1.4,0.2,2.3,0.5c0.9,0.4,1.9,0.5,2.9,0.5c1.1,0,2-0.4,2.8-1.1c0.8-0.7,1.2-1.7,1.2-2.8
		c0-1.8-0.4-3.5-1.3-5.1c-0.8-1.5-1.8-3-2.8-4.4c-1-1.4-1.9-2.8-2.8-4.1s-1.3-2.8-1.3-4.2c0-0.4,0.1-0.8,0.2-1.3h-2.3
		c-0.4,0-0.9-0.1-1.4-0.2s-1-0.4-1.5-0.6c-0.5-0.2-0.9-0.5-1.2-0.8c-0.3-0.3-0.5-0.6-0.5-0.9c0-0.4,0.4-0.5,1.1-0.5h30.7
		c0.4,0,0.9,0.1,1.4,0.2s1,0.4,1.5,0.6c0.5,0.3,0.9,0.6,1.2,0.9c0.3,0.3,0.5,0.6,0.5,0.9c0,0.3-0.3,0.4-1,0.4H225v29.8
		C225,57.7,224.8,57.8,224.3,57.8z M209,38.9l0.1-2.3c0-0.5,0-1.1,0-1.6c0-0.5,0-1.1-0.1-1.7c0-0.5,0.3-0.7,0.9-0.7
		c0.2,0,0.6,0.1,1,0.2c0.4,0.1,0.9,0.3,1.3,0.4c0.4,0.2,0.8,0.3,1.1,0.4c0.3,0.1,0.5,0.2,0.5,0.3c0.7,0.5,1.5,1,2.4,1.7
		c0.9,0.6,1.8,1.4,2.9,2.2V27.6h-13.2l0.1,0.2c-0.6,1-0.8,2.1-0.8,3.2c0,0.6,0.1,1.1,0.2,1.6c0.1,0.5,0.3,1,0.6,1.6
		c0.3,0.6,0.7,1.2,1.2,2C207.6,36.9,208.3,37.8,209,38.9z"/>
	<linearGradient id="SVGID_16_" gradientUnits="userSpaceOnUse" x1="309.7013" y1="50.1512" x2="-5.2987" y2="-1.2774">
		<stop  offset="0" style="stop-color:#19DD33"/>
		<stop  offset="0.4261" style="stop-color:#0FA922"/>
		<stop  offset="0.8038" style="stop-color:#088215"/>
		<stop  offset="1" style="stop-color:#057310"/>
	</linearGradient>
	<path class="st102" d="M258.2,26.2c0.3,0.4,0.5,0.7,0.5,0.9c0,0.3-0.3,0.5-1,0.5h-2.7v29.7c0,0.2-0.2,0.3-0.7,0.3
		c-0.4,0-0.9-0.1-1.5-0.2c-0.6-0.1-1.2-0.3-1.7-0.6c-0.6-0.2-1-0.5-1.4-0.8c-0.4-0.3-0.6-0.7-0.6-1.1v-0.3c-0.6-2.3-1.8-4.3-3.6-6
		c-0.1,0.5-0.3,1-0.7,1.5s-0.8,0.9-1.3,1.2s-1.1,0.6-1.8,0.8c-0.6,0.2-1.3,0.3-2,0.3c-1.3,0-2.5-0.2-3.8-0.7c-1.3-0.5-2.4-1.1-3.4-2
		c-1-0.8-1.8-1.8-2.4-2.9c-0.6-1.1-0.9-2.3-0.9-3.6c0-1,0.4-1.7,1.1-2c0.7-0.3,1.6-0.5,2.6-0.5c1.2,0,2.4,0.1,3.6,0.4
		c1.2,0.3,2.3,0.6,3.4,1.1c-0.2-1.5-0.5-2.7-1-3.6c-0.5-0.9-1.1-1.7-1.8-2.4c-0.7-0.7-1.6-1.4-2.6-2.1c-1-0.7-2.1-1.5-3.3-2.5
		c-1.2-0.9-1.8-2.1-1.8-3.4c0-0.3,0-0.5,0.1-0.6h-2.2c-0.2,0-0.5-0.1-1-0.2c-0.5-0.1-0.9-0.3-1.4-0.6c-0.5-0.2-0.9-0.5-1.2-0.8
		c-0.4-0.3-0.5-0.6-0.5-0.9c0-0.4,0.3-0.5,1-0.5H254c0.7,0,1.4,0.2,2.2,0.5S257.7,25.7,258.2,26.2z M239.7,45.7v-1.1
		c-0.5,0-1-0.1-1.6-0.4c-0.6-0.3-1.1-0.4-1.6-0.4c-0.5,0-0.9,0.1-1.2,0.4s-0.4,0.8-0.4,1.6c0,0.9,0.2,1.8,0.7,2.8l0.6,0.8h0.2
		c0.9-0.2,1.7-0.6,2.2-1.3C239.3,47.3,239.6,46.5,239.7,45.7z M245.5,45.4c0.6,0.4,1.2,0.8,1.7,1.2c0.6,0.4,1.1,0.8,1.7,1.3V27.6
		h-12.3c-0.5,0.2-0.9,0.6-1.1,1.2c-0.3,0.6-0.4,1-0.4,1.4c0,0.6,0.2,1.1,0.5,1.4c0.3,0.4,0.7,0.7,1.2,1c1.1,0.7,2.2,1.5,3.2,2.3
		c1,0.8,2,1.7,2.8,2.7c0.8,1,1.5,2.1,2,3.3c0.5,1.2,0.7,2.5,0.7,3.9V45.4z"/>
	<linearGradient id="SVGID_17_" gradientUnits="userSpaceOnUse" x1="306.1763" y1="71.7416" x2="-8.8237" y2="20.3131">
		<stop  offset="0" style="stop-color:#19DD33"/>
		<stop  offset="0.4261" style="stop-color:#0FA922"/>
		<stop  offset="0.8038" style="stop-color:#088215"/>
		<stop  offset="1" style="stop-color:#057310"/>
	</linearGradient>
	<path class="st103" d="M249.1,59.2v-5.3c0-0.2,0-0.3,0.1-0.5c0.1-0.1,0.3-0.3,0.5-0.5c0.2-0.2,0.6-0.4,1.1-0.7
		c0.5-0.3,1.1-0.6,1.8-1c1-0.6,1.7-0.8,2.1-0.8c0.2,0,0.3,0.1,0.3,0.2v10.8c0,0.1-0.1,0.2-0.2,0.3c-4.3,2.2-6.4,4.5-6.4,7.1
		c0,0.8,0.1,1.3,0.3,1.7s0.4,0.7,0.6,1h0.6c0.6,0,1.2-0.2,1.9-0.6c0.7-0.4,1.3-0.9,1.9-1.5c0.6-0.6,1.2-1.3,1.7-2.1
		c0.5-0.8,0.9-1.5,1.3-2.3c0.1-0.3,0.4-0.4,0.9-0.4c0.4,0,0.8,0.1,1.3,0.2s0.9,0.3,1.3,0.5c0.4,0.2,0.8,0.4,1.2,0.7
		c0.4,0.2,0.7,0.5,0.9,0.7c1.7,2,3.4,4,5.3,5.8c1.8,1.8,3.8,3.6,5.8,5.3c0.4,0.3,0.6,0.6,0.6,0.8c0,0.3-0.4,0.5-1.1,0.5
		c-2.6-0.1-6.6-3.1-12-8.8c-1.9,2.8-4.5,4.2-7.8,4.2c-1.5,0-2.9-0.2-4.2-0.7c-1.3-0.5-2.4-1.1-3.4-1.8c-0.9-0.7-1.7-1.6-2.2-2.5
		c-0.5-0.9-0.8-1.8-0.8-2.6c0-0.9,0.2-1.8,0.6-2.6c0.4-0.8,0.9-1.5,1.5-2.1c0.6-0.6,1.3-1.2,2-1.7c0.7-0.5,1.4-0.9,2-1.1L249.1,59.2
		z"/>
	<linearGradient id="SVGID_18_" gradientUnits="userSpaceOnUse" x1="309.4129" y1="51.9175" x2="-5.5871" y2="0.489">
		<stop  offset="0" style="stop-color:#19DD33"/>
		<stop  offset="0.4261" style="stop-color:#0FA922"/>
		<stop  offset="0.8038" style="stop-color:#088215"/>
		<stop  offset="1" style="stop-color:#057310"/>
	</linearGradient>
	<path class="st104" d="M268,27.6c1.4,0.3,2.9,0.8,4.4,1.5c1.6,0.7,3.1,1.6,4.4,2.6c1.4,1,2.5,2.2,3.4,3.5c0.9,1.3,1.4,2.7,1.4,4.2
		c0,1.3-0.3,2.4-0.8,3.4c-0.5,1-1.2,1.9-2.1,2.7S277,47,276,47.6c-1,0.6-2,1.1-2.9,1.6l-1.3,0.6c-0.7,0.4-1.5,0.7-2.3,1.2
		c-0.8,0.4-1.6,0.9-2.3,1.5c-0.7,0.5-1.3,1.2-1.7,1.8c-0.5,0.7-0.7,1.4-0.7,2.3c0,0.9,0.3,1.7,0.8,2.5c0.5,0.8,1.1,1.4,1.7,2
		l0.5,0.6c0.3,0.5,0.8,1.1,1.4,1.7c0.6,0.6,1.2,1.2,1.8,1.8c0.6,0.6,1.1,1.1,1.5,1.6c0.4,0.5,0.6,0.8,0.6,0.9c0,0.4-0.4,0.5-1.1,0.5
		c-0.9,0-1.9-0.2-2.7-0.7s-1.7-1-2.5-1.7c-0.8-0.7-1.5-1.4-2.2-2.3c-0.7-0.8-1.4-1.6-2-2.4l-0.5-0.5c-0.8-0.9-1.6-1.9-2.2-3
		c-0.7-1.1-1-2.2-1-3.4c0-0.7,0.2-1.4,0.5-2c0.3-0.6,0.8-1.2,1.3-1.7c0.5-0.5,1.1-1,1.7-1.4c0.6-0.4,1.2-0.8,1.8-1.1l2.6-1.4
		c0.9-0.4,1.9-0.9,3-1.5c1-0.6,2-1.3,2.8-2.1c0.9-0.8,1.6-1.7,2.1-2.7c0.6-1,0.8-2.1,0.8-3.3c0-1.1-0.3-2.1-0.9-3.1
		c-0.6-0.9-1.3-1.7-2.2-2.3s-1.9-1.1-3-1.4c-1.1-0.3-2.1-0.5-3.1-0.5h-0.3v8.8c0.1,0.6,0.2,1.4,0.2,2.3c0,0.3-0.1,0.5-0.3,0.6
		c-0.2,0.1-0.4,0.1-0.6,0.1c-0.5,0-1-0.1-1.6-0.2c-0.6-0.2-1.1-0.4-1.7-0.6c-0.5-0.2-1-0.5-1.3-0.8c-0.4-0.3-0.5-0.6-0.5-0.8
		c0-0.7-0.1-1.5-0.2-2.2c-0.1-0.7-0.5-1.4-0.9-2c-0.2-0.2-0.3-0.4-0.3-0.6c0-0.2,0.1-0.4,0.4-0.4c0.2-0.1,0.5-0.1,0.8-0.1v-6.4h-3.1
		c-0.4,0-0.9-0.1-1.5-0.2c-0.6-0.2-1.1-0.4-1.6-0.6c-0.5-0.2-0.9-0.5-1.2-0.8c-0.3-0.3-0.5-0.6-0.5-0.9c0-0.4,0.4-0.5,1.1-0.5h26.9
		c0.4,0,0.9,0.1,1.4,0.2c0.5,0.2,1,0.4,1.5,0.6c0.5,0.2,0.9,0.5,1.2,0.8c0.3,0.3,0.5,0.6,0.5,0.9s-0.3,0.5-1,0.5H268z"/>
</g>
</svg>
